<svg width="108" height="22" viewBox="0 0 108 22" fill="none" xmlns="http://www.w3.org/2000/svg">
<g clip-path="url(#clip0_6445_33671)">
<path d="M39.1813 1.49811H35.8423L35.7484 2.30937C35.4989 4.5248 34.6248 5.52333 32.7217 6.14796V9.08133H34.3753V16.8829C34.3753 20.4714 36.029 22.0006 39.2435 22.0006C40.3043 22.0006 41.2717 21.8445 42.1147 21.595V16.9769C41.4907 17.2575 40.8978 17.3825 40.4293 17.3825C39.6803 17.3825 39.1813 17.0391 39.1813 16.0406V9.08133H42.2709V4.86822H39.1813V1.49811Z" fill="#0B6DFF"/>
<path d="M25.9851 15.2598C25.9851 16.6017 25.2361 17.413 24.0192 17.413C22.8023 17.413 22.1472 16.6017 22.1472 15.2598V4.86823H17.3418V16.4145C17.3418 19.8157 19.3389 21.9689 22.6157 21.9689C24.176 21.9689 25.4868 21.4693 26.5164 20.3775H26.5787V21.7816H30.7912V4.86823H25.9858V15.2598H25.9851Z" fill="#0B6DFF"/>
<path d="M107.169 4.86823H102.145L100.085 9.98592H100.023L97.9322 4.86823H92.4082L96.3718 12.9815L92.4082 21.7816H97.4948L99.5547 16.2894H99.6169L101.708 21.7816H107.137L103.206 13.231L107.169 4.86823Z" fill="#0B6DFF"/>
<path d="M4.27532 0L0 21.7816H4.96154L5.42939 18.9416H10.2348L10.7026 21.7816H15.8203L11.484 0H4.27532ZM6.11623 14.8541L7.8327 4.68096H7.89492L9.58028 14.8541H6.11623Z" fill="#0B6DFF"/>
<path d="M52.2222 4.64984C47.0423 4.64984 43.6094 8.14501 43.6094 13.3249C43.6094 18.5048 47.0417 22 52.2222 22C57.4028 22 60.804 18.5359 60.804 13.3249C60.804 8.1139 57.3717 4.64984 52.2222 4.64984ZM52.2222 17.2879C50.1001 17.2879 48.6026 15.6654 48.6026 13.3249C48.6026 10.9844 50.0696 9.36191 52.2222 9.36191C54.3748 9.36191 55.8107 10.9533 55.8107 13.3249C55.8107 15.6965 54.3437 17.2879 52.2222 17.2879Z" fill="#0B6DFF"/>
<path d="M84.2103 4.68097C79.1237 4.68097 75.6914 8.05108 75.6914 13.356C75.6914 18.661 79.1244 21.9689 85.0222 21.9689C86.7698 21.9689 88.7357 21.6566 90.3583 20.9082V16.1339C88.8919 17.1635 87.0193 17.632 85.3028 17.632C83.0563 17.632 81.3398 16.7896 80.7469 14.8548H91.6691C92.8238 8.30181 89.4848 4.68159 84.2109 4.68159L84.2103 4.68097ZM80.7463 11.2657C81.2458 9.70535 82.3999 8.73792 84.0853 8.73792C85.7706 8.73792 87.0186 9.6114 87.237 11.2657H80.7463Z" fill="#0B6DFF"/>
<path d="M71.3488 0L68.4254 17.1007H68.4185L68.4167 17.1119L68.3638 17.1106L65.553 0H60.4365L64.7741 21.7816H71.9828L76.2575 0H71.3488Z" fill="#0B6DFF"/>
</g>
<defs>
<clipPath id="clip0_6445_33671">
<rect width="107.169" height="22" fill="white"/>
</clipPath>
</defs>
</svg>
